# xmcd CD database file
#
# Track frame offsets:
#	150
#	11811
#	30420
#	44962
#	62488
#	77160
#	95998
#	112289
#	129524
#	147529
#	164323
#	175731
#	192561
#	242174
#
# Disc length: 3483 seconds
#
# Revision: 1
# Processed by: cddbd v1.5.2PL0 Copyright (c) Steve Scherf et al.
# Submitted via: CDex 1.51
#
DISCID=d20d990e
DTITLE=Darren Kozelsky - Let Your Mind Fly
DYEAR=2008
DGENRE=Country
TTITLE0=Cool Grass
TTITLE1=Messed Up In Love
TTITLE2=Mind Over Matter
TTITLE3=Name On Her Wings
TTITLE4=Loving You
TTITLE5=Other Side Of Morning
TTITLE6=Running Kid
TTITLE7=Only Just Your Friend
TTITLE8=Down Into Black
TTITLE9=Restless Spirits
TTITLE10=Love Lays Before You
TTITLE11=Why Do I Dream
TTITLE12=Standing In A Moment
TTITLE13=Data Track
EXTD=YEAR: 2008
EXTT0=
EXTT1=
EXTT2=
EXTT3=
EXTT4=
EXTT5=
EXTT6=
EXTT7=
EXTT8=
EXTT9=
EXTT10=
EXTT11=
EXTT12=
EXTT13=
PLAYORDER=
